<svg width="22" height="22" viewBox="0 0 22 22" fill="none" xmlns="http://www.w3.org/2000/svg">
<mask id="mask0_6875_20619" style="mask-type:alpha" maskUnits="userSpaceOnUse" x="0" y="0" width="22" height="22">
<rect width="22" height="22" fill="#D9D9D9"/>
</mask>
<g mask="url(#mask0_6875_20619)">
<path d="M13.9111 7.63008C14.3541 8.07313 14.6788 8.5773 14.885 9.14258C15.0913 9.70786 15.1638 10.2884 15.1027 10.8842C15.1027 11.1134 15.0187 11.3082 14.8507 11.4686C14.6826 11.629 14.484 11.7092 14.2548 11.7092C14.0257 11.7092 13.8309 11.629 13.6704 11.4686C13.51 11.3082 13.4298 11.1134 13.4298 10.8842C13.5062 10.487 13.4833 10.1051 13.3611 9.73841C13.2388 9.37175 13.0479 9.05855 12.7882 8.79883C12.5284 8.53911 12.2152 8.34049 11.8486 8.20299C11.4819 8.06549 11.0923 8.03494 10.6798 8.11133C10.4507 8.11133 10.2559 8.0273 10.0954 7.85924C9.93503 7.69119 9.85482 7.49258 9.85482 7.26341C9.85482 7.03425 9.93503 6.83945 10.0954 6.67904C10.2559 6.51862 10.4507 6.43841 10.6798 6.43841C11.2604 6.3773 11.8333 6.44987 12.3986 6.65612C12.9638 6.86237 13.468 7.18702 13.9111 7.63008ZM11.0007 5.49883C10.7104 5.49883 10.4277 5.51029 10.1527 5.5332C9.87774 5.55612 9.60274 5.59813 9.32774 5.65924C9.06801 5.70508 8.83503 5.66688 8.62878 5.54466C8.42253 5.42244 8.28121 5.23911 8.20482 4.99466C8.12843 4.75022 8.15517 4.51341 8.28503 4.28424C8.41489 4.05508 8.60204 3.91758 8.84649 3.87174C9.19787 3.79536 9.55308 3.74188 9.91211 3.71133C10.2711 3.68077 10.634 3.66549 11.0007 3.66549C13.0937 3.66549 15.0072 4.21549 16.7413 5.31549C18.4753 6.41549 19.8007 7.89744 20.7173 9.76133C20.7784 9.88355 20.8243 10.0096 20.8548 10.1395C20.8854 10.2693 20.9007 10.403 20.9007 10.5405C20.9007 10.678 20.8892 10.8117 20.8663 10.9415C20.8434 11.0714 20.8013 11.1974 20.7402 11.3197C20.4652 11.9308 20.1253 12.5037 19.7204 13.0384C19.3156 13.5731 18.8687 14.062 18.3798 14.5051C18.1965 14.6731 17.9826 14.7419 17.7382 14.7113C17.4937 14.6808 17.2951 14.5586 17.1423 14.3447C16.9895 14.1308 16.9246 13.8978 16.9475 13.6457C16.9704 13.3936 17.0736 13.1836 17.2569 13.0155C17.6236 12.6641 17.9597 12.2822 18.2652 11.8697C18.5708 11.4572 18.8382 11.0141 19.0673 10.5405C18.3034 8.99744 17.1996 7.7714 15.7559 6.86237C14.3121 5.95334 12.727 5.49883 11.0007 5.49883ZM11.0007 17.4155C8.95343 17.4155 7.0819 16.8617 5.38607 15.754C3.69023 14.6464 2.35343 13.1912 1.37565 11.3884C1.29926 11.2662 1.24197 11.1325 1.20378 10.9874C1.16558 10.8422 1.14648 10.6933 1.14648 10.5405C1.14648 10.3877 1.16176 10.2426 1.19232 10.1051C1.22287 9.96758 1.27635 9.83008 1.35273 9.69258C1.65829 9.08147 2.0135 8.49709 2.41836 7.93945C2.82322 7.38181 3.28537 6.87383 3.80482 6.41549L1.90273 4.49049C1.73468 4.30716 1.65447 4.08945 1.66211 3.83737C1.66975 3.58529 1.7576 3.37522 1.92565 3.20716C2.09371 3.03911 2.3076 2.95508 2.56732 2.95508C2.82704 2.95508 3.04093 3.03911 3.20898 3.20716L18.7923 18.7905C18.9604 18.9586 19.0482 19.1686 19.0559 19.4207C19.0635 19.6728 18.9757 19.8905 18.7923 20.0738C18.6243 20.2419 18.4104 20.3259 18.1507 20.3259C17.8909 20.3259 17.677 20.2419 17.509 20.0738L14.3007 16.9113C13.7659 17.0794 13.2236 17.2054 12.6736 17.2895C12.1236 17.3735 11.5659 17.4155 11.0007 17.4155ZM5.08815 7.69883C4.6451 8.09605 4.24023 8.53147 3.87357 9.00508C3.5069 9.47869 3.19371 9.9905 2.93398 10.5405C3.69787 12.0836 4.80169 13.3096 6.24544 14.2186C7.68919 15.1276 9.27426 15.5822 11.0007 15.5822C11.3062 15.5822 11.6041 15.5631 11.8944 15.5249C12.1847 15.4867 12.4826 15.4447 12.7882 15.3988L11.9632 14.528C11.7951 14.5738 11.6347 14.6082 11.4819 14.6311C11.3291 14.654 11.1687 14.6655 11.0007 14.6655C9.85482 14.6655 8.88086 14.2645 8.07878 13.4624C7.27669 12.6603 6.87565 11.6863 6.87565 10.5405C6.87565 10.3724 6.88711 10.212 6.91003 10.0592C6.93294 9.90647 6.96732 9.74605 7.01315 9.57799L5.08815 7.69883Z" fill="#22303E"/>
</g>
</svg>
