<svg width="23" height="23" viewBox="0 0 23 23" fill="none" xmlns="http://www.w3.org/2000/svg">
<mask id="mask0_6875_20613" style="mask-type:alpha" maskUnits="userSpaceOnUse" x="0" y="0" width="23" height="23">
<rect x="0.527344" y="0.925781" width="22" height="22" fill="#D9D9D9"/>
</mask>
<g mask="url(#mask0_6875_20613)">
<path d="M11.5285 15.5918C12.6743 15.5918 13.6483 15.1908 14.4504 14.3887C15.2525 13.5866 15.6535 12.6126 15.6535 11.4668C15.6535 10.321 15.2525 9.34701 14.4504 8.54492C13.6483 7.74284 12.6743 7.3418 11.5285 7.3418C10.3827 7.3418 9.40872 7.74284 8.60664 8.54492C7.80456 9.34701 7.40352 10.321 7.40352 11.4668C7.40352 12.6126 7.80456 13.5866 8.60664 14.3887C9.40872 15.1908 10.3827 15.5918 11.5285 15.5918ZM11.5285 13.9418C10.841 13.9418 10.2566 13.7012 9.77539 13.2199C9.29414 12.7387 9.05352 12.1543 9.05352 11.4668C9.05352 10.7793 9.29414 10.1949 9.77539 9.71367C10.2566 9.23242 10.841 8.9918 11.5285 8.9918C12.216 8.9918 12.8004 9.23242 13.2816 9.71367C13.7629 10.1949 14.0035 10.7793 14.0035 11.4668C14.0035 12.1543 13.7629 12.7387 13.2816 13.2199C12.8004 13.7012 12.216 13.9418 11.5285 13.9418ZM11.5285 18.3418C9.48129 18.3418 7.61358 17.7918 5.92539 16.6918C4.2372 15.5918 2.90421 14.1404 1.92643 12.3376C1.85004 12.2001 1.79275 12.0588 1.75456 11.9137C1.71636 11.7685 1.69727 11.6196 1.69727 11.4668C1.69727 11.314 1.71636 11.1651 1.75456 11.0199C1.79275 10.8748 1.85004 10.7335 1.92643 10.596C2.90421 8.79319 4.2372 7.3418 5.92539 6.2418C7.61358 5.1418 9.48129 4.5918 11.5285 4.5918C13.5757 4.5918 15.4434 5.1418 17.1316 6.2418C18.8198 7.3418 20.1528 8.79319 21.1306 10.596C21.207 10.7335 21.2643 10.8748 21.3025 11.0199C21.3407 11.1651 21.3598 11.314 21.3598 11.4668C21.3598 11.6196 21.3407 11.7685 21.3025 11.9137C21.2643 12.0588 21.207 12.2001 21.1306 12.3376C20.1528 14.1404 18.8198 15.5918 17.1316 16.6918C15.4434 17.7918 13.5757 18.3418 11.5285 18.3418ZM11.5285 16.5085C13.2549 16.5085 14.84 16.0539 16.2837 15.1449C17.7275 14.2359 18.8313 13.0099 19.5952 11.4668C18.8313 9.92374 17.7275 8.6977 16.2837 7.78867C14.84 6.87964 13.2549 6.42513 11.5285 6.42513C9.80213 6.42513 8.21706 6.87964 6.77331 7.78867C5.32956 8.6977 4.22574 9.92374 3.46185 11.4668C4.22574 13.0099 5.32956 14.2359 6.77331 15.1449C8.21706 16.0539 9.80213 16.5085 11.5285 16.5085Z" fill="#22303E"/>
</g>
</svg>
